# xmcd
#
# Track frame offsets:
#	150
#	15513
#	33309
#	49124
#	64297
#	80063
#	97473
#	115216
#	132681
#	149466
#	164268
#	180534
#
# Disc length: 2626 seconds
#
# Revision: 1
# Processed by: cddbd v1.5.1PL0 Copyright (c) Steve Scherf et al.
# Submitted via: audiograbber 1.82.02
#
DISCID=b00a400c
DTITLE=Craig Morgan - My Kind Of Livin'
DYEAR=2005
DGENRE=Country
TTITLE0=Craig Morgan - That's What I Love About Sunda
TTITLE1=Craig Morgan - I Got You
TTITLE2=Craig Morgan - That's When I'll Believe You'r
TTITLE3=Craig Morgan - I'm Country
TTITLE4=Craig Morgan - Lotta Man (In That Little Boy)
TTITLE5=Craig Morgan - If You Like That
TTITLE6=Craig Morgan - Ain't The Way I Wanna Go Out
TTITLE7=Craig Morgan - Redneck Yacht Club
TTITLE8=Craig Morgan - Rain For The Roses
TTITLE9=Craig Morgan - Blame Me
TTITLE10=Craig Morgan - Cowboy And Clown
TTITLE11=Craig Morgan - In My Neighborhood
EXTD=
EXTT0=
EXTT1=
EXTT2=
EXTT3=
EXTT4=
EXTT5=
EXTT6=
EXTT7=
EXTT8=
EXTT9=
EXTT10=
EXTT11=
PLAYORDER=
